G04 ===== Begin FILE IDENTIFICATION =====*
G04 File Format:  Gerber RS274X*
G04 ===== End FILE IDENTIFICATION =====*
%FSLAX24Y24*%
%MOIN*%
%SFA1.0000B1.0000*%
%OFA0.0B0.0*%
%ADD14R,0.011811X0.015748*%
%ADD15R,0.019685X0.031496*%
%ADD16R,0.031496X0.019685*%
%ADD17R,0.031496X0.027559*%
%ADD18R,0.027559X0.031496*%
%LNcond*%
%IPPOS*%
%LPD*%
G75*
G36*
G01X-162Y1068D02*
G01X-103D01*
G01Y1058D01*
G01X-162Y1068D01*
G37*
G36*
G01X-710Y1235D02*
G01X-654Y1225D01*
G01X-710D01*
G01Y1235D01*
G37*
G36*
G01X-710Y1057D02*
G01X-654Y1068D01*
G01X-710D01*
G01Y1057D01*
G37*
G36*
G01X-162Y1225D02*
G01X-103Y1235D01*
G01Y1225D01*
G01X-162D01*
G37*
G36*
G01X-678Y297D02*
G01X-138Y299D01*
G01X-409Y460D01*
G01X-678Y297D01*
G37*
G36*
G01X-44Y1225D02*
G01X227Y906D01*
G01X-44Y1068D01*
G01Y1225D01*
G37*
G36*
G01X-145Y899D02*
G01X-44Y1068D01*
G01X227Y906D01*
G01X125Y737D01*
G01X-145Y899D01*
G37*
G36*
G01X-409Y460D02*
G01X-307Y629D01*
G01X-37Y467D01*
G01X-138Y299D01*
G01X-409Y460D01*
G37*
D14*
X-103Y1146D03*
X-713D03*
G36*
G01X-678Y297D02*
G01X-779Y466D01*
G01X-509Y628D01*
G01X-409Y459D01*
G01X-678Y297D01*
G37*
G36*
G01X-941Y736D02*
G01X-1042Y905D01*
G01X-772Y1068D01*
G01X-671Y898D01*
G01X-941Y736D01*
G37*
G36*
G01X-772Y1225D02*
G01X-1042Y905D01*
G01X-772Y1068D01*
G01Y1225D01*
G37*
D15*
X-1203Y1146D03*
X-1715D03*
G36*
G01X-710Y1235D02*
G01X-1104D01*
G01Y1057D01*
G01X-710D01*
G01Y1235D01*
G37*
D15*
X902Y1146D03*
X390D03*
G36*
G01X-103Y1058D02*
G01X292D01*
G01Y1235D01*
G01X-103D01*
G01Y1058D01*
G37*
D16*
X-948Y1845D03*
Y1333D03*
D15*
X-377Y2101D03*
X-889D03*
D16*
X390Y891D03*
Y379D03*
D17*
Y144D03*
D18*
X-140Y2101D03*
G36*
G01X-1104Y989D02*
G01Y1057D01*
G01X-914D01*
G01X-1042Y905D01*
G01X-1104Y989D01*
G37*
G36*
G01X292Y1058D02*
G01Y989D01*
G01X233D01*
G01Y792D01*
G01X125Y737D01*
G01X227Y906D01*
G01X98Y1058D01*
G01X292D01*
G37*
D15*
X-1085Y2101D03*
X-1597D03*
M02*

